<?xml version="1.0" encoding="UTF-8"?>
<!DOCTYPE svg PUBLIC "-//W3C//DTD SVG 1.1//EN" "http://www.w3.org/Graphics/SVG/1.1/DTD/svg11.dtd">
<svg xmlns="http://www.w3.org/2000/svg" version="1.1" width="120px" height="120px" style="shape-rendering:geometricPrecision; text-rendering:geometricPrecision; image-rendering:optimizeQuality; fill-rule:evenodd; clip-rule:evenodd" xmlns:xlink="http://www.w3.org/1999/xlink">
<g><path style="opacity:0.918" fill="#bdb886" d="M 4.5,6.5 C 7.03417,10.9261 10.0342,14.9261 13.5,18.5C 8.07372,16.312 5.07372,12.312 4.5,6.5 Z"/></g>
<g><path style="opacity:0.992" fill="#a09965" d="M 70.5,29.5 C 72.5,29.5 74.5,29.5 76.5,29.5C 76.7373,30.791 76.404,31.791 75.5,32.5C 74.2652,32.2786 73.2652,31.6119 72.5,30.5C 71.6143,31.325 71.281,32.325 71.5,33.5C 69.857,33.5198 68.5237,32.8532 67.5,31.5C 67.1667,31.8333 66.8333,32.1667 66.5,32.5C 67.8665,33.84 69.1999,35.1733 70.5,36.5C 68.6916,36.4914 67.0249,36.9914 65.5,38C 66.3903,40.3065 65.3903,41.4732 62.5,41.5C 62.813,37.813 62.813,34.1463 62.5,30.5C 60.604,29.5344 58.604,29.2011 56.5,29.5C 56.369,28.7611 56.5357,28.0944 57,27.5C 59.0408,28.4231 61.2075,28.7564 63.5,28.5C 63.3505,29.552 63.5172,30.552 64,31.5C 66.1643,27.1399 68.331,22.8066 70.5,18.5C 70.5,16.8333 70.5,15.1667 70.5,13.5C 67.7212,13.2786 65.0545,13.612 62.5,14.5C 57.8121,13.5324 53.1455,13.5324 48.5,14.5C 47.0679,16.297 47.4012,17.6303 49.5,18.5C 50.5,21.8333 51.5,25.1667 52.5,28.5C 50.6748,25.4687 48.5081,22.4687 46,19.5C 45.4301,10.7518 49.0968,8.41843 57,12.5C 55.6297,9.49262 56.6297,7.49262 60,6.5C 60.772,6.6448 61.4387,6.97814 62,7.5C 62.2189,8.93801 62.7189,10.2713 63.5,11.5C 68.8347,9.25894 72.5014,10.7589 74.5,16C 72.2111,20.3069 69.8778,24.6402 67.5,29C 68.448,29.4828 69.448,29.6495 70.5,29.5 Z"/></g>
<g><path style="opacity:1" fill="#bbad29" d="M 70.5,18.5 C 68.2549,19.6352 65.9216,20.1352 63.5,20C 61.3652,18.4443 61.0319,16.6109 62.5,14.5C 65.0545,13.612 67.7212,13.2786 70.5,13.5C 70.5,15.1667 70.5,16.8333 70.5,18.5 Z"/></g>
<g><path style="opacity:0.914" fill="#a8a05e" d="M -0.5,0.5 C 2.54112,1.19912 4.20778,3.19912 4.5,6.5C 2.87627,4.86322 1.87627,5.19656 1.5,7.5C 1.9379,14.8137 1.9379,22.147 1.5,29.5C 2.17439,34.5037 2.84106,39.5037 3.5,44.5C 3.09733,41.0937 1.76399,38.0937 -0.5,35.5C -0.5,23.8333 -0.5,12.1667 -0.5,0.5 Z"/></g>
<g><path style="opacity:1" fill="#aea555" d="M 119.5,0.5 C 119.5,7.83333 119.5,15.1667 119.5,22.5C 117.87,20.9739 117.037,18.9739 117,16.5C 116,17.8333 115,19.1667 114,20.5C 113.785,18.5804 114.452,16.9137 116,15.5C 117.124,12.5576 117.458,9.55761 117,6.5C 115.839,9.18478 114.006,11.1848 111.5,12.5C 113.707,8.74895 115.374,4.74895 116.5,0.5C 117.5,0.5 118.5,0.5 119.5,0.5 Z"/></g>
<g><path style="opacity:0.627" fill="#c5c0a0" d="M 13.5,18.5 C 15.914,19.9108 17.5806,21.9108 18.5,24.5C 16.086,23.0892 14.4194,21.0892 13.5,18.5 Z"/></g>
<g><path style="opacity:1" fill="#92893a" d="M 62.5,14.5 C 61.0319,16.6109 61.3652,18.4443 63.5,20C 65.9216,20.1352 68.2549,19.6352 70.5,18.5C 68.331,22.8066 66.1643,27.1399 64,31.5C 63.5172,30.552 63.3505,29.552 63.5,28.5C 61.2075,28.7564 59.0408,28.4231 57,27.5C 56.5357,28.0944 56.369,28.7611 56.5,29.5C 55.8354,31.3691 55.1687,33.3691 54.5,35.5C 53.8933,35.3764 53.56,35.0431 53.5,34.5C 53.5,34.1667 53.5,33.8333 53.5,33.5C 53.7373,32.209 53.404,31.209 52.5,30.5C 52.5,30.1667 52.5,29.8333 52.5,29.5C 52.5,29.1667 52.5,28.8333 52.5,28.5C 51.5,25.1667 50.5,21.8333 49.5,18.5C 47.4012,17.6303 47.0679,16.297 48.5,14.5C 53.1455,13.5324 57.8121,13.5324 62.5,14.5 Z"/></g>
<g><path style="opacity:1" fill="#c3b524" d="M 49.5,18.5 C 49.5,17.1667 49.5,15.8333 49.5,14.5C 51.9201,14.2924 54.2534,14.6258 56.5,15.5C 57.4287,16.6888 57.762,18.0222 57.5,19.5C 54.5176,21.0775 51.8509,20.7442 49.5,18.5 Z"/></g>
<g><path style="opacity:1" fill="#c7bc4a" d="M 119.5,22.5 C 119.5,23.8333 119.5,25.1667 119.5,26.5C 118.953,29.6065 117.953,32.6065 116.5,35.5C 115.175,36.9526 114.342,36.6192 114,34.5C 113.586,34.9574 113.086,35.2907 112.5,35.5C 111.646,34.4783 110.646,33.6449 109.5,33C 112.274,30.9362 114.107,28.4362 115,25.5C 113.667,26.8333 112.333,28.1667 111,29.5C 110.349,27.765 110.515,26.0983 111.5,24.5C 110.833,24.1667 110.167,23.8333 109.5,23.5C 110.04,22.2519 110.707,21.0852 111.5,20C 110.464,18.2245 110.464,16.3911 111.5,14.5C 111.5,13.8333 111.5,13.1667 111.5,12.5C 114.006,11.1848 115.839,9.18478 117,6.5C 117.458,9.55761 117.124,12.5576 116,15.5C 114.452,16.9137 113.785,18.5804 114,20.5C 115,19.1667 116,17.8333 117,16.5C 117.037,18.9739 117.87,20.9739 119.5,22.5 Z"/></g>
<g><path style="opacity:0.635" fill="#b4ae82" d="M 18.5,24.5 C 19.4584,24.9528 20.2917,25.6195 21,26.5C 21.3333,26.1667 21.6667,25.8333 22,25.5C 23.8022,26.7893 24.9688,28.4559 25.5,30.5C 24.609,29.8902 23.609,29.5569 22.5,29.5C 22.1667,28.5 21.5,27.8333 20.5,27.5C 19.0937,27.0269 18.427,26.0269 18.5,24.5 Z"/></g>
<g><path style="opacity:0.984" fill="#b0a753" d="M 34.5,23.5 C 37.2092,23.5549 39.2092,24.2216 40.5,25.5C 40.2865,27.1439 40.6198,28.6439 41.5,30C 38.0936,33.1137 37.0936,32.2803 38.5,27.5C 38.1667,26.1667 37.8333,26.1667 37.5,27.5C 36.8333,27.5 36.5,27.8333 36.5,28.5C 35.1154,29.5736 33.9487,30.9069 33,32.5C 32.5172,31.552 32.3505,30.552 32.5,29.5C 30.8212,29.7148 29.8212,29.0481 29.5,27.5C 30.1293,25.0029 31.796,23.6696 34.5,23.5 Z"/></g>
<g><path style="opacity:0.565" fill="#a7a16e" d="M 82.5,40.5 C 81.5,40.5 80.5,40.5 79.5,40.5C 79.1667,40.5 78.8333,40.5 78.5,40.5C 77.3552,41.7927 77.6885,42.9593 79.5,44C 77.144,44.1554 74.8107,44.1554 72.5,44C 73.756,44.4169 74.4226,45.2502 74.5,46.5C 73.1667,46.5 71.8333,46.5 70.5,46.5C 70.5979,48.5529 69.9313,50.2196 68.5,51.5C 67.3415,48.423 67.6748,45.423 69.5,42.5C 73.9038,42.7213 76.2371,40.388 76.5,35.5C 76.4431,34.391 76.1098,33.391 75.5,32.5C 76.404,31.791 76.7373,30.791 76.5,29.5C 74.5,29.5 72.5,29.5 70.5,29.5C 70.5,28.5 70.5,27.5 70.5,26.5C 72.1238,26.3601 73.2904,27.0267 74,28.5C 78.493,21.3359 83.8263,20.6693 90,26.5C 90.49,27.7932 90.6567,29.1266 90.5,30.5C 89.5,30.5 88.5,30.5 87.5,30.5C 85.3758,37.2744 83.8758,36.9411 83,29.5C 82.9343,32.2756 81.7676,34.4423 79.5,36C 81.8633,36.5885 82.8633,38.0885 82.5,40.5 Z"/></g>
<g><path style="opacity:1" fill="#c5ba38" d="M 82.5,25.5 C 85.0449,23.9768 87.0449,24.6434 88.5,27.5C 87.7579,28.2868 86.9246,28.9535 86,29.5C 85.34,27.6763 84.1733,26.343 82.5,25.5 Z"/></g>
<g><path style="opacity:1" fill="#c8bb2d" d="M 22.5,29.5 C 23.609,29.5569 24.609,29.8902 25.5,30.5C 27.8333,33.8333 30.1667,37.1667 32.5,40.5C 29.266,39.8776 26.4327,37.8776 24,34.5C 22.9914,32.9751 22.4914,31.3084 22.5,29.5 Z"/></g>
<g><path style="opacity:0.976" fill="#756d31" d="M 75.5,32.5 C 76.1098,33.391 76.4431,34.391 76.5,35.5C 74.5,35.8333 72.5,36.1667 70.5,36.5C 69.1999,35.1733 67.8665,33.84 66.5,32.5C 66.8333,32.1667 67.1667,31.8333 67.5,31.5C 68.5237,32.8532 69.857,33.5198 71.5,33.5C 71.281,32.325 71.6143,31.325 72.5,30.5C 73.2652,31.6119 74.2652,32.2786 75.5,32.5 Z"/></g>
<g><path style="opacity:1" fill="#afa32d" d="M 111.5,14.5 C 110.464,16.3911 110.464,18.2245 111.5,20C 110.707,21.0852 110.04,22.2519 109.5,23.5C 110.167,23.8333 110.833,24.1667 111.5,24.5C 110.515,26.0983 110.349,27.765 111,29.5C 112.333,28.1667 113.667,26.8333 115,25.5C 114.107,28.4362 112.274,30.9362 109.5,33C 110.646,33.6449 111.646,34.4783 112.5,35.5C 113.086,35.2907 113.586,34.9574 114,34.5C 114.342,36.6192 115.175,36.9526 116.5,35.5C 116.5,38.1667 116.5,40.8333 116.5,43.5C 116.167,43.5 115.833,43.5 115.5,43.5C 115.649,42.448 115.483,41.448 115,40.5C 113.332,43.6 111.165,44.1 108.5,42C 109.167,41.3333 109.833,40.6667 110.5,40C 109.167,39 109.167,38 110.5,37C 109.551,36.3828 108.718,36.5494 108,37.5C 107.228,36.1509 106.061,35.3176 104.5,35C 110.092,26.411 109.425,25.7443 102.5,33C 101.833,33.6667 101.167,33.6667 100.5,33C 105.966,29.2333 108.633,24.0666 108.5,17.5C 108.81,15.8564 109.81,14.8564 111.5,14.5 Z"/></g>
<g><path style="opacity:0.651" fill="#a9a26e" d="M 111.5,12.5 C 111.5,13.1667 111.5,13.8333 111.5,14.5C 109.81,14.8564 108.81,15.8564 108.5,17.5C 105.51,20.7923 102.51,24.1257 99.5,27.5C 97.5956,27.7376 96.2623,28.7376 95.5,30.5C 90.8837,33.4284 87.8837,37.4284 86.5,42.5C 87.1999,45.0627 88.1999,47.5627 89.5,50C 89.0217,51.3026 88.355,52.4693 87.5,53.5C 83.5998,53.3399 80.9331,55.0066 79.5,58.5C 77.1725,59.724 74.8392,59.724 72.5,58.5C 72.1667,58.8333 71.8333,59.1667 71.5,59.5C 72.325,60.3857 73.325,60.719 74.5,60.5C 75.8011,62.6719 76.8011,65.0052 77.5,67.5C 77.5,68.1667 77.5,68.8333 77.5,69.5C 77.1667,69.5 76.8333,69.5 76.5,69.5C 76.5,69.1667 76.5,68.8333 76.5,68.5C 75.9202,66.2512 74.5869,64.5846 72.5,63.5C 71.6935,62.2719 70.6935,61.2719 69.5,60.5C 69.1667,59.8333 68.8333,59.1667 68.5,58.5C 69.3764,58.6309 70.0431,58.2975 70.5,57.5C 69.7542,56.2638 69.4208,54.9305 69.5,53.5C 74.0094,59.1081 78.0094,58.6081 81.5,52C 83.5,51.1667 85.5,50.3333 87.5,49.5C 84.7163,45.6966 84.2163,41.6966 86,37.5C 91.6884,31.4561 97.355,26.1227 103,21.5C 105.062,17.0458 107.895,14.0458 111.5,12.5 Z"/></g>
<g><path style="opacity:0.843" fill="#bbb685" d="M 119.5,26.5 C 119.5,29.8333 119.5,33.1667 119.5,36.5C 117.98,38.5884 116.98,40.9217 116.5,43.5C 116.5,40.8333 116.5,38.1667 116.5,35.5C 117.953,32.6065 118.953,29.6065 119.5,26.5 Z"/></g>
<g><path style="opacity:1" fill="#9b8f2a" d="M 99.5,27.5 C 99.1752,32.1838 99.1752,36.8505 99.5,41.5C 99.0163,43.8008 98.0163,45.8008 96.5,47.5C 95.7611,47.631 95.0944,47.4643 94.5,47C 97.7303,45.276 98.0636,43.276 95.5,41C 98.143,38.0178 98.143,35.8511 95.5,34.5C 96.7053,33.0052 96.7053,31.6719 95.5,30.5C 96.2623,28.7376 97.5956,27.7376 99.5,27.5 Z"/></g>
<g><path style="opacity:1" fill="#c1b536" d="M 108.5,17.5 C 108.633,24.0666 105.966,29.2333 100.5,33C 101.167,33.6667 101.833,33.6667 102.5,33C 109.425,25.7443 110.092,26.411 104.5,35C 106.061,35.3176 107.228,36.1509 108,37.5C 108.718,36.5494 109.551,36.3828 110.5,37C 109.167,38 109.167,39 110.5,40C 109.833,40.6667 109.167,41.3333 108.5,42C 111.165,44.1 113.332,43.6 115,40.5C 115.483,41.448 115.649,42.448 115.5,43.5C 114.659,44.9264 113.659,46.2597 112.5,47.5C 110.703,48.7298 108.703,49.3964 106.5,49.5C 106.297,47.6096 106.963,46.1096 108.5,45C 107.696,43.2287 106.529,41.7287 105,40.5C 101.841,42.4437 102.341,43.6103 106.5,44C 104.918,46.0854 102.918,47.5854 100.5,48.5C 101.5,49.1667 102.5,49.8333 103.5,50.5C 100.967,52.4742 98.3004,52.8075 95.5,51.5C 96.2778,50.8444 96.9444,50.0111 97.5,49C 97.4301,48.2352 97.0967,47.7352 96.5,47.5C 98.0163,45.8008 99.0163,43.8008 99.5,41.5C 99.1752,36.8505 99.1752,32.1838 99.5,27.5C 102.51,24.1257 105.51,20.7923 108.5,17.5 Z"/></g>
<g><path style="opacity:0.475" fill="#b4ae6c" d="M 40.5,37.5 C 41.8534,39.1827 43.5201,40.5161 45.5,41.5C 43.7399,44.6901 41.4066,45.1901 38.5,43C 43.3965,41.9399 43.0632,40.7732 37.5,39.5C 38.0047,38.0815 39.0047,37.4148 40.5,37.5 Z"/></g>
<g><path style="opacity:1" fill="#bcb037" d="M 4.5,6.5 C 5.07372,12.312 8.07372,16.312 13.5,18.5C 14.4194,21.0892 16.086,23.0892 18.5,24.5C 18.427,26.0269 19.0937,27.0269 20.5,27.5C 19.9401,32.3803 19.9401,37.5469 20.5,43C 16.2473,42.2672 13.2473,39.7672 11.5,35.5C 12.2624,35.0894 13.2624,34.9227 14.5,35C 12.6469,32.9602 11.3136,30.6269 10.5,28C 11.4491,27.3828 12.2825,27.5494 13,28.5C 13.5628,27.2752 13.2295,26.2752 12,25.5C 11.3333,26.8333 10.6667,26.8333 10,25.5C 9.17513,29.9075 9.67513,34.2409 11.5,38.5C 10.3318,39.9056 10.6652,41.0723 12.5,42C 11.8742,42.7504 11.3742,43.5838 11,44.5C 10.1627,42.9926 8.99608,42.4926 7.5,43C 12.4262,46.6294 17.7595,49.4627 23.5,51.5C 21.2351,52.6474 18.9018,52.8141 16.5,52C 14.9494,48.64 14.4494,48.8066 15,52.5C 16.9197,54.7259 18.753,57.0592 20.5,59.5C 18.8333,60.8333 17.1667,60.8333 15.5,59.5C 13.217,58.0288 11.217,56.3621 9.5,54.5C 7.16971,52.4156 6.00305,49.749 6,46.5C 5.2917,45.6195 4.45837,44.9528 3.5,44.5C 2.84106,39.5037 2.17439,34.5037 1.5,29.5C 1.9379,22.147 1.9379,14.8137 1.5,7.5C 1.87627,5.19656 2.87627,4.86322 4.5,6.5 Z"/></g>
<g><path style="opacity:1" fill="#a2962e" d="M 20.5,27.5 C 21.5,27.8333 22.1667,28.5 22.5,29.5C 22.4914,31.3084 22.9914,32.9751 24,34.5C 26.4327,37.8776 29.266,39.8776 32.5,40.5C 33.0431,40.56 33.3764,40.8933 33.5,41.5C 31.8921,44.3821 30.5587,47.3821 29.5,50.5C 30.9767,52.8648 32.9767,54.5315 35.5,55.5C 30.6204,54.1008 28.9537,54.1008 30.5,55.5C 30.5,56.5 30.5,57.5 30.5,58.5C 31.675,58.281 32.675,58.6143 33.5,59.5C 30.7361,60.9324 28.5694,60.2657 27,57.5C 21.3193,59.389 21.8193,60.5557 28.5,61C 27.1772,61.8159 26.5106,62.9826 26.5,64.5C 26.2172,65.2891 25.7172,65.9558 25,66.5C 24.8047,64.7928 24.8047,63.1261 25,61.5C 23.9887,62.3366 22.8221,62.67 21.5,62.5C 17.3892,62.1563 13.7226,60.823 10.5,58.5C 10.5674,57.0413 10.2341,55.7079 9.5,54.5C 11.217,56.3621 13.217,58.0288 15.5,59.5C 17.1667,60.8333 18.8333,60.8333 20.5,59.5C 18.753,57.0592 16.9197,54.7259 15,52.5C 14.4494,48.8066 14.9494,48.64 16.5,52C 18.9018,52.8141 21.2351,52.6474 23.5,51.5C 17.7595,49.4627 12.4262,46.6294 7.5,43C 8.99608,42.4926 10.1627,42.9926 11,44.5C 11.3742,43.5838 11.8742,42.7504 12.5,42C 10.6652,41.0723 10.3318,39.9056 11.5,38.5C 9.67513,34.2409 9.17513,29.9075 10,25.5C 10.6667,26.8333 11.3333,26.8333 12,25.5C 13.2295,26.2752 13.5628,27.2752 13,28.5C 12.2825,27.5494 11.4491,27.3828 10.5,28C 11.3136,30.6269 12.6469,32.9602 14.5,35C 13.2624,34.9227 12.2624,35.0894 11.5,35.5C 13.2473,39.7672 16.2473,42.2672 20.5,43C 19.9401,37.5469 19.9401,32.3803 20.5,27.5 Z"/></g>
<g><path style="opacity:1" fill="#bfb236" d="M 95.5,30.5 C 96.7053,31.6719 96.7053,33.0052 95.5,34.5C 98.143,35.8511 98.143,38.0178 95.5,41C 98.0636,43.276 97.7303,45.276 94.5,47C 95.0944,47.4643 95.7611,47.631 96.5,47.5C 95.5972,50.119 93.9305,50.7856 91.5,49.5C 94.0756,48.1166 93.7423,47.2833 90.5,47C 89.7171,44.8816 88.3838,43.3816 86.5,42.5C 87.8837,37.4284 90.8837,33.4284 95.5,30.5 Z"/></g>
<g><path style="opacity:0.396" fill="#aaa581" d="M 34.5,23.5 C 35.9464,22.3871 37.6131,22.2204 39.5,23C 41.4999,24.622 43.3333,26.4553 45,28.5C 46.049,26.8934 47.549,26.2267 49.5,26.5C 49.5,27.5 49.5,28.5 49.5,29.5C 50.5,29.5 51.5,29.5 52.5,29.5C 52.5,29.8333 52.5,30.1667 52.5,30.5C 49.1401,30.3841 45.8067,30.0508 42.5,29.5C 42.6633,31.8568 42.4966,34.1902 42,36.5C 41.6174,37.056 41.1174,37.3893 40.5,37.5C 39.0047,37.4148 38.0047,38.0815 37.5,39.5C 43.0632,40.7732 43.3965,41.9399 38.5,43C 41.4066,45.1901 43.7399,44.6901 45.5,41.5C 46.8322,43.1377 48.1655,44.8044 49.5,46.5C 45.7802,46.4358 42.1135,45.9358 38.5,45C 35.582,41.5281 35.9154,38.5281 39.5,36C 37.9512,34.786 36.7845,33.286 36,31.5C 35.5172,32.448 35.3505,33.448 35.5,34.5C 32.5,34.8333 31.1667,33.5 31.5,30.5C 30.5,30.5 29.5,30.5 28.5,30.5C 28.2627,29.209 28.596,28.209 29.5,27.5C 29.8212,29.0481 30.8212,29.7148 32.5,29.5C 32.3505,30.552 32.5172,31.552 33,32.5C 33.9487,30.9069 35.1154,29.5736 36.5,28.5C 37.1667,28.5 37.5,28.1667 37.5,27.5C 37.8333,27.5 38.1667,27.5 38.5,27.5C 37.0936,32.2803 38.0936,33.1137 41.5,30C 40.6198,28.6439 40.2865,27.1439 40.5,25.5C 39.2092,24.2216 37.2092,23.5549 34.5,23.5 Z"/></g>
<g><path style="opacity:0.686" fill="#bcb894" d="M 78.5,40.5 C 78.8333,41.8333 79.1667,41.8333 79.5,40.5C 80.5,40.5 81.5,40.5 82.5,40.5C 83.3168,42.3077 82.6502,43.8077 80.5,45C 78.4144,45.3153 76.4144,45.8153 74.5,46.5C 74.4226,45.2502 73.756,44.4169 72.5,44C 74.8107,44.1554 77.144,44.1554 79.5,44C 77.6885,42.9593 77.3552,41.7927 78.5,40.5 Z"/></g>
<g><path style="opacity:0.565" fill="#b5b088" d="M 56.5,29.5 C 57.8138,32.7868 57.4805,35.9535 55.5,39C 57.1233,41.0795 58.6233,43.2462 60,45.5C 60.2784,44.5842 60.7784,43.9175 61.5,43.5C 61.5,44.8333 61.5,46.1667 61.5,47.5C 59.629,47.1412 58.129,46.1412 57,44.5C 55.4086,42.0734 54.5752,39.4067 54.5,36.5C 53.1266,36.6567 51.7932,36.49 50.5,36C 51.0442,35.2828 51.7109,34.7828 52.5,34.5C 52.8333,34.5 53.1667,34.5 53.5,34.5C 53.56,35.0431 53.8933,35.3764 54.5,35.5C 55.1687,33.3691 55.8354,31.3691 56.5,29.5 Z"/></g>
<g><path style="opacity:1" fill="#c6b937" d="M 13.5,43.5 C 16.9278,43.5465 19.9278,44.7132 22.5,47C 19.7614,48.6728 17.0947,48.3394 14.5,46C 13.7476,45.3292 13.4142,44.4959 13.5,43.5 Z"/></g>
<g><path style="opacity:1" fill="#8f8742" d="M 52.5,30.5 C 53.404,31.209 53.7373,32.209 53.5,33.5C 52.8333,33.5 52.5,33.8333 52.5,34.5C 51.7109,34.7828 51.0442,35.2828 50.5,36C 51.7932,36.49 53.1266,36.6567 54.5,36.5C 54.5752,39.4067 55.4086,42.0734 57,44.5C 58.129,46.1412 59.629,47.1412 61.5,47.5C 61.4142,48.4959 61.7476,49.3292 62.5,50C 60.8659,50.4935 59.1992,50.6602 57.5,50.5C 57.6567,51.8734 57.49,53.2068 57,54.5C 55.513,53.7471 55.3463,52.9138 56.5,52C 54.9262,50.1741 54.0929,48.0075 54,45.5C 53.6667,47.5 53.3333,49.5 53,51.5C 52.5831,52.756 51.7498,53.4226 50.5,53.5C 50.1307,51.5588 49.464,49.7255 48.5,48C 49.056,47.6174 49.3893,47.1174 49.5,46.5C 48.1655,44.8044 46.8322,43.1377 45.5,41.5C 43.5201,40.5161 41.8534,39.1827 40.5,37.5C 41.1174,37.3893 41.6174,37.056 42,36.5C 42.4966,34.1902 42.6633,31.8568 42.5,29.5C 45.8067,30.0508 49.1401,30.3841 52.5,30.5 Z"/></g>
<g><path style="opacity:0.741" fill="#aaa376" d="M 3.5,44.5 C 4.45837,44.9528 5.2917,45.6195 6,46.5C 6.00305,49.749 7.16971,52.4156 9.5,54.5C 10.2341,55.7079 10.5674,57.0413 10.5,58.5C 6.59999,54.7002 4.26665,50.0335 3.5,44.5 Z"/></g>
<g><path style="opacity:1" fill="#b1a53a" d="M 112.5,47.5 C 112.204,50.993 110.537,52.1596 107.5,51C 109.275,58.0809 106.442,61.9142 99,62.5C 99.1929,64.0824 100.026,65.4157 101.5,66.5C 97.2849,68.3828 94.9515,67.2161 94.5,63C 96.5733,62.8817 97.9067,61.8817 98.5,60C 97.6367,57.6381 95.9701,56.1381 93.5,55.5C 94.6302,54.3777 95.2969,53.0443 95.5,51.5C 98.3004,52.8075 100.967,52.4742 103.5,50.5C 102.5,49.8333 101.5,49.1667 100.5,48.5C 102.918,47.5854 104.918,46.0854 106.5,44C 102.341,43.6103 101.841,42.4437 105,40.5C 106.529,41.7287 107.696,43.2287 108.5,45C 106.963,46.1096 106.297,47.6096 106.5,49.5C 108.703,49.3964 110.703,48.7298 112.5,47.5 Z"/></g>
<g><path style="opacity:1" fill="#988c2c" d="M 86.5,42.5 C 88.3838,43.3816 89.7171,44.8816 90.5,47C 93.7423,47.2833 94.0756,48.1166 91.5,49.5C 93.9305,50.7856 95.5972,50.119 96.5,47.5C 97.0967,47.7352 97.4301,48.2352 97.5,49C 96.9444,50.0111 96.2778,50.8444 95.5,51.5C 95.2969,53.0443 94.6302,54.3777 93.5,55.5C 95.9701,56.1381 97.6367,57.6381 98.5,60C 97.9067,61.8817 96.5733,62.8817 94.5,63C 94.9515,67.2161 97.2849,68.3828 101.5,66.5C 102.043,66.56 102.376,66.8933 102.5,67.5C 100.955,68.4519 99.288,68.7852 97.5,68.5C 95.3718,67.0427 93.0384,66.0427 90.5,65.5C 90.7438,68.2626 92.0771,70.4293 94.5,72C 92.255,71.8047 90.4216,70.6381 89,68.5C 88.6667,69.1667 88.3333,69.8333 88,70.5C 87.2747,68.842 86.108,68.342 84.5,69C 85.4558,72.3936 85.7892,75.8936 85.5,79.5C 84.6618,79.8417 84.3284,80.5084 84.5,81.5C 82.0268,81.264 80.3601,79.9307 79.5,77.5C 78.8319,75.0312 78.1653,72.6979 77.5,70.5C 77.5,70.1667 77.5,69.8333 77.5,69.5C 77.5,68.8333 77.5,68.1667 77.5,67.5C 80.0896,68.0511 80.7563,69.3845 79.5,71.5C 81.0194,73.5563 81.8528,75.8896 82,78.5C 82.9862,76.2222 83.8195,73.8889 84.5,71.5C 83.624,70.7492 82.624,70.2492 81.5,70C 82.3366,68.9887 82.67,67.8221 82.5,66.5C 90.1402,67.7169 90.4735,66.3836 83.5,62.5C 82.065,64.4011 80.3983,64.7345 78.5,63.5C 78.9377,62.4937 79.6043,62.4937 80.5,63.5C 81.1667,62.5 81.8333,61.5 82.5,60.5C 83.891,61.6446 85.2243,61.6446 86.5,60.5C 84.3066,58.618 84.9733,58.118 88.5,59C 88.8333,59.3333 89.1667,59.6667 89.5,60C 86.9178,62.0268 87.4178,63.1935 91,63.5C 91.8333,63.3333 92.6667,63.1667 93.5,63C 92.3279,62.5814 91.3279,61.9147 90.5,61C 92.8333,60.6667 95.1667,60.3333 97.5,60C 94.3966,58.1737 91.0633,56.8404 87.5,56C 91.333,55.3965 91.333,54.5632 87.5,53.5C 88.355,52.4693 89.0217,51.3026 89.5,50C 88.1999,47.5627 87.1999,45.0627 86.5,42.5 Z"/></g>
<g><path style="opacity:1" fill="#a59d59" d="M 25.5,30.5 C 28.8325,33 31.6658,36 34,39.5C 34.9792,43.2952 34.1458,46.6285 31.5,49.5C 33.5,50.3333 35.5,51.1667 37.5,52C 39.4085,54.2504 41.5752,56.0837 44,57.5C 46.9621,57.2775 49.1288,55.9442 50.5,53.5C 51.1124,56.6973 53.1124,58.0306 56.5,57.5C 56.5,57.8333 56.5,58.1667 56.5,58.5C 54.302,58.1201 52.6354,58.7868 51.5,60.5C 50.8333,60.8333 50.1667,61.1667 49.5,61.5C 47.9731,61.427 46.9731,62.0937 46.5,63.5C 43.5926,65.3145 42.2593,67.9812 42.5,71.5C 41.5489,72.9187 41.2155,74.5853 41.5,76.5C 41.5,77.5 41.5,78.5 41.5,79.5C 39.5082,79.3285 37.8415,79.9951 36.5,81.5C 35.7348,80.3881 34.7348,79.7214 33.5,79.5C 33.6492,75.8767 34.8158,75.5434 37,78.5C 39.3706,78.0234 40.5372,76.5234 40.5,74C 40.3248,72.3419 39.6582,71.0086 38.5,70C 41.9336,67.6791 43.4336,64.5124 43,60.5C 41.7012,60.9662 40.2012,60.9662 38.5,60.5C 38.2785,58.3364 37.2785,56.6697 35.5,55.5C 32.9767,54.5315 30.9767,52.8648 29.5,50.5C 30.5587,47.3821 31.8921,44.3821 33.5,41.5C 33.3764,40.8933 33.0431,40.56 32.5,40.5C 30.1667,37.1667 27.8333,33.8333 25.5,30.5 Z"/></g>
<g><path style="opacity:1" fill="#93893a" d="M 76.5,35.5 C 76.2371,40.388 73.9038,42.7213 69.5,42.5C 67.6748,45.423 67.3415,48.423 68.5,51.5C 68.8333,52.1667 69.1667,52.8333 69.5,53.5C 69.4208,54.9305 69.7542,56.2638 70.5,57.5C 70.0431,58.2975 69.3764,58.6309 68.5,58.5C 64.6002,57.5701 60.6002,57.2367 56.5,57.5C 53.1124,58.0306 51.1124,56.6973 50.5,53.5C 51.7498,53.4226 52.5831,52.756 53,51.5C 53.3333,49.5 53.6667,47.5 54,45.5C 54.0929,48.0075 54.9262,50.1741 56.5,52C 55.3463,52.9138 55.513,53.7471 57,54.5C 57.49,53.2068 57.6567,51.8734 57.5,50.5C 59.1992,50.6602 60.8659,50.4935 62.5,50C 61.7476,49.3292 61.4142,48.4959 61.5,47.5C 61.5,46.1667 61.5,44.8333 61.5,43.5C 61.3284,42.5084 61.6618,41.8417 62.5,41.5C 65.3903,41.4732 66.3903,40.3065 65.5,38C 67.0249,36.9914 68.6916,36.4914 70.5,36.5C 72.5,36.1667 74.5,35.8333 76.5,35.5 Z"/></g>
<g><path style="opacity:1" fill="#3c4dcd" d="M 56.5,58.5 C 60.4885,58.1164 64.1552,58.783 67.5,60.5C 62.1667,59.1667 56.8333,59.1667 51.5,60.5C 52.6354,58.7868 54.302,58.1201 56.5,58.5 Z"/></g>
<g><path style="opacity:1" fill="#838a8d" d="M 56.5,58.5 C 56.5,58.1667 56.5,57.8333 56.5,57.5C 60.6002,57.2367 64.6002,57.5701 68.5,58.5C 68.8333,59.1667 69.1667,59.8333 69.5,60.5C 68.8333,60.5 68.1667,60.5 67.5,60.5C 64.1552,58.783 60.4885,58.1164 56.5,58.5 Z"/></g>
<g><path style="opacity:1" fill="#b6aa3b" d="M 87.5,53.5 C 91.333,54.5632 91.333,55.3965 87.5,56C 91.0633,56.8404 94.3966,58.1737 97.5,60C 95.1667,60.3333 92.8333,60.6667 90.5,61C 91.3279,61.9147 92.3279,62.5814 93.5,63C 92.6667,63.1667 91.8333,63.3333 91,63.5C 87.4178,63.1935 86.9178,62.0268 89.5,60C 89.1667,59.6667 88.8333,59.3333 88.5,59C 84.9733,58.118 84.3066,58.618 86.5,60.5C 85.2243,61.6446 83.891,61.6446 82.5,60.5C 81.8333,61.5 81.1667,62.5 80.5,63.5C 79.6043,62.4937 78.9377,62.4937 78.5,63.5C 80.3983,64.7345 82.065,64.4011 83.5,62.5C 90.4735,66.3836 90.1402,67.7169 82.5,66.5C 82.67,67.8221 82.3366,68.9887 81.5,70C 82.624,70.2492 83.624,70.7492 84.5,71.5C 83.8195,73.8889 82.9862,76.2222 82,78.5C 81.8528,75.8896 81.0194,73.5563 79.5,71.5C 80.7563,69.3845 80.0896,68.0511 77.5,67.5C 76.8011,65.0052 75.8011,62.6719 74.5,60.5C 73.325,60.719 72.325,60.3857 71.5,59.5C 71.8333,59.1667 72.1667,58.8333 72.5,58.5C 74.8392,59.724 77.1725,59.724 79.5,58.5C 80.9331,55.0066 83.5998,53.3399 87.5,53.5 Z"/></g>
<g><path style="opacity:1" fill="#2a45fa" d="M 67.5,60.5 C 68.1667,60.5 68.8333,60.5 69.5,60.5C 70.6935,61.2719 71.6935,62.2719 72.5,63.5C 73.0798,65.7488 74.4131,67.4154 76.5,68.5C 76.5,68.8333 76.5,69.1667 76.5,69.5C 76.8076,71.924 76.4742,74.2573 75.5,76.5C 74.5832,75.8728 73.5832,75.5394 72.5,75.5C 71.9032,74.8614 71.0698,74.528 70,74.5C 68.3009,74.3866 67.1342,75.0532 66.5,76.5C 65.5,76.5 64.5,76.5 63.5,76.5C 62.8658,75.0532 61.6991,74.3866 60,74.5C 57.7899,75.0215 55.6232,75.6882 53.5,76.5C 51.5,75.8333 49.5,75.1667 47.5,74.5C 45.8653,75.0463 44.1986,75.3796 42.5,75.5C 42.5,74.1667 42.5,72.8333 42.5,71.5C 44.341,69.1515 45.6743,66.4848 46.5,63.5C 48.0269,63.573 49.0269,62.9063 49.5,61.5C 50.1667,61.1667 50.8333,60.8333 51.5,60.5C 56.8333,59.1667 62.1667,59.1667 67.5,60.5 Z"/></g>
<g><path style="opacity:1" fill="#b2a63a" d="M 35.5,55.5 C 37.2785,56.6697 38.2785,58.3364 38.5,60.5C 40.2012,60.9662 41.7012,60.9662 43,60.5C 43.4336,64.5124 41.9336,67.6791 38.5,70C 39.6582,71.0086 40.3248,72.3419 40.5,74C 40.5372,76.5234 39.3706,78.0234 37,78.5C 34.8158,75.5434 33.6492,75.8767 33.5,79.5C 32.5326,80.8062 31.1993,81.4729 29.5,81.5C 29.7947,79.2646 29.4614,77.2646 28.5,75.5C 29.086,73.1602 30.086,70.9935 31.5,69C 29.8934,67.951 29.2267,66.451 29.5,64.5C 28.5,64.5 27.5,64.5 26.5,64.5C 26.5106,62.9826 27.1772,61.8159 28.5,61C 21.8193,60.5557 21.3193,59.389 27,57.5C 28.5694,60.2657 30.7361,60.9324 33.5,59.5C 32.675,58.6143 31.675,58.281 30.5,58.5C 30.5,57.5 30.5,56.5 30.5,55.5C 28.9537,54.1008 30.6204,54.1008 35.5,55.5 Z"/></g>
<g><path style="opacity:1" fill="#4c58b6" d="M 49.5,61.5 C 49.0269,62.9063 48.0269,63.573 46.5,63.5C 46.9731,62.0937 47.9731,61.427 49.5,61.5 Z"/></g>
<g><path style="opacity:1" fill="#4c58b8" d="M 72.5,63.5 C 74.5869,64.5846 75.9202,66.2512 76.5,68.5C 74.4131,67.4154 73.0798,65.7488 72.5,63.5 Z"/></g>
<g><path style="opacity:1" fill="#4954c1" d="M 46.5,63.5 C 45.6743,66.4848 44.341,69.1515 42.5,71.5C 42.2593,67.9812 43.5926,65.3145 46.5,63.5 Z"/></g>
<g><path style="opacity:1" fill="#c0b43a" d="M 26.5,64.5 C 27.5,64.5 28.5,64.5 29.5,64.5C 29.2267,66.451 29.8934,67.951 31.5,69C 30.086,70.9935 29.086,73.1602 28.5,75.5C 26.1205,76.5669 25.1205,75.5669 25.5,72.5C 24.1667,72.5 22.8333,72.5 21.5,72.5C 21.2965,70.6096 21.9632,69.1096 23.5,68C 15.1942,68.8656 14.5276,67.0322 21.5,62.5C 22.8221,62.67 23.9887,62.3366 25,61.5C 24.8047,63.1261 24.8047,64.7928 25,66.5C 25.7172,65.9558 26.2172,65.2891 26.5,64.5 Z"/></g>
<g><path style="opacity:0.549" fill="#b6b081" d="M 115.5,43.5 C 115.833,43.5 116.167,43.5 116.5,43.5C 115.123,49.372 112.623,54.7053 109,59.5C 107.048,61.8936 104.548,63.3936 101.5,64C 105.97,68.3645 105.303,70.3645 99.5,70C 100.861,71.5843 101.528,73.4176 101.5,75.5C 100.167,75.5 98.8333,75.5 97.5,75.5C 97.4732,80.2595 95.8065,81.2595 92.5,78.5C 93.5,78.5 94.5,78.5 95.5,78.5C 95.5,77.1667 95.5,75.8333 95.5,74.5C 96.9778,74.762 98.3112,74.4287 99.5,73.5C 98.0499,72.1502 97.3832,70.4835 97.5,68.5C 99.288,68.7852 100.955,68.4519 102.5,67.5C 102.376,66.8933 102.043,66.56 101.5,66.5C 100.026,65.4157 99.1929,64.0824 99,62.5C 106.442,61.9142 109.275,58.0809 107.5,51C 110.537,52.1596 112.204,50.993 112.5,47.5C 113.659,46.2597 114.659,44.9264 115.5,43.5 Z"/></g>
<g><path style="opacity:0.745" fill="#4d60d9" d="M 72.5,75.5 C 71.209,75.2627 70.209,75.596 69.5,76.5C 69.1667,76.5 68.8333,76.5 68.5,76.5C 67.8333,76.5 67.1667,76.5 66.5,76.5C 67.1342,75.0532 68.3009,74.3866 70,74.5C 71.0698,74.528 71.9032,74.8614 72.5,75.5 Z"/></g>
<g><path style="opacity:0.541" fill="#7a80cb" d="M 42.5,71.5 C 42.5,72.8333 42.5,74.1667 42.5,75.5C 44.1986,75.3796 45.8653,75.0463 47.5,74.5C 49.5,75.1667 51.5,75.8333 53.5,76.5C 55.6232,75.6882 57.7899,75.0215 60,74.5C 61.6991,74.3866 62.8658,75.0532 63.5,76.5C 63.1667,76.5 62.8333,76.5 62.5,76.5C 59.4228,76.3471 56.5895,77.0137 54,78.5C 50.6015,76.602 47.1015,76.2687 43.5,77.5C 42.8333,77.1667 42.1667,76.8333 41.5,76.5C 41.2155,74.5853 41.5489,72.9187 42.5,71.5 Z"/></g>
<g><path style="opacity:0.369" fill="#7782c4" d="M 76.5,69.5 C 76.8333,69.5 77.1667,69.5 77.5,69.5C 77.5,69.8333 77.5,70.1667 77.5,70.5C 77.5,72.8333 77.5,75.1667 77.5,77.5C 76.5,77.5 75.5,77.5 74.5,77.5C 72.7839,77.3713 71.1172,77.038 69.5,76.5C 70.209,75.596 71.209,75.2627 72.5,75.5C 73.5832,75.5394 74.5832,75.8728 75.5,76.5C 76.4742,74.2573 76.8076,71.924 76.5,69.5 Z"/></g>
<g><path style="opacity:0.541" fill="#9da0d3" d="M 62.5,76.5 C 62.8333,76.5 63.1667,76.5 63.5,76.5C 64.5,76.5 65.5,76.5 66.5,76.5C 67.1667,76.5 67.8333,76.5 68.5,76.5C 66.406,78.9938 64.406,78.9938 62.5,76.5 Z"/></g>
<g><path style="opacity:0.463" fill="#a59f6c" d="M 92.5,78.5 C 91.1656,80.4657 89.8322,82.4657 88.5,84.5C 87.1482,83.4756 85.8149,82.4756 84.5,81.5C 84.3284,80.5084 84.6618,79.8417 85.5,79.5C 86.4822,80.1408 87.4822,80.8075 88.5,81.5C 89.3184,78.8929 89.8184,76.2263 90,73.5C 91.3717,74.9101 92.205,76.5767 92.5,78.5 Z"/></g>
<g><path style="opacity:1" fill="#bbaf3a" d="M 97.5,68.5 C 97.3832,70.4835 98.0499,72.1502 99.5,73.5C 98.3112,74.4287 96.9778,74.762 95.5,74.5C 95.5,75.8333 95.5,77.1667 95.5,78.5C 94.5,78.5 93.5,78.5 92.5,78.5C 92.205,76.5767 91.3717,74.9101 90,73.5C 89.8184,76.2263 89.3184,78.8929 88.5,81.5C 87.4822,80.8075 86.4822,80.1408 85.5,79.5C 85.7892,75.8936 85.4558,72.3936 84.5,69C 86.108,68.342 87.2747,68.842 88,70.5C 88.3333,69.8333 88.6667,69.1667 89,68.5C 90.4216,70.6381 92.255,71.8047 94.5,72C 92.0771,70.4293 90.7438,68.2626 90.5,65.5C 93.0384,66.0427 95.3718,67.0427 97.5,68.5 Z"/></g>
<g><path style="opacity:0.627" fill="#afa977" d="M 10.5,58.5 C 13.7226,60.823 17.3892,62.1563 21.5,62.5C 14.5276,67.0322 15.1942,68.8656 23.5,68C 21.9632,69.1096 21.2965,70.6096 21.5,72.5C 22.8333,72.5 24.1667,72.5 25.5,72.5C 25.1205,75.5669 26.1205,76.5669 28.5,75.5C 29.4614,77.2646 29.7947,79.2646 29.5,81.5C 31.1993,81.4729 32.5326,80.8062 33.5,79.5C 34.7348,79.7214 35.7348,80.3881 36.5,81.5C 37.8415,79.9951 39.5082,79.3285 41.5,79.5C 41.5,78.5 41.5,77.5 41.5,76.5C 42.1667,76.8333 42.8333,77.1667 43.5,77.5C 43.2729,79.9328 44.2729,81.5994 46.5,82.5C 46.5,83.1667 46.1667,83.5 45.5,83.5C 44.5,83.5 43.5,83.5 42.5,83.5C 37.0566,83.3786 34.5566,86.0453 35,91.5C 35.6708,90.7476 36.5041,90.4142 37.5,90.5C 39.9971,91.1293 41.3304,92.796 41.5,95.5C 40.1154,94.4264 38.9487,93.0931 38,91.5C 36.1551,93.3501 34.1551,93.6834 32,92.5C 32.9281,89.3959 34.0948,86.2292 35.5,83C 35,82.5 34.5,82 34,81.5C 32.8867,83.3293 31.3867,84.1626 29.5,84C 28.7362,81.9307 28.2362,79.764 28,77.5C 24.4203,81.7951 22.587,81.1284 22.5,75.5C 21.1667,75.5 19.8333,75.5 18.5,75.5C 18.6984,73.4247 18.8651,71.4247 19,69.5C 17.9887,70.3366 16.8221,70.67 15.5,70.5C 15.1043,67.9556 15.771,65.7889 17.5,64C 15.3496,62.5886 13.0163,61.7553 10.5,61.5C 10.5,60.5 10.5,59.5 10.5,58.5 Z"/></g>
<g><path style="opacity:1" fill="#1f1e1c" d="M 73.5,82.5 C 73.5,82.8333 73.5,83.1667 73.5,83.5C 66.8759,91.1128 59.0425,92.4461 50,87.5C 48.3007,86.2956 46.8007,84.9622 45.5,83.5C 46.1667,83.5 46.5,83.1667 46.5,82.5C 55.4321,81.2995 64.4321,81.2995 73.5,82.5 Z"/></g>
<g><path style="opacity:1" fill="#b2a63c" d="M 75.5,83.5 C 78.2469,83.1866 80.9135,83.52 83.5,84.5C 85.1908,87.3452 84.8575,89.6785 82.5,91.5C 82.0291,90.0992 81.3624,88.7658 80.5,87.5C 79.9939,90.4998 78.4939,92.8331 76,94.5C 74.9701,94.1639 74.4701,93.4972 74.5,92.5C 75.8514,90.4708 75.518,88.6375 73.5,87C 73.9783,85.6974 74.645,84.5307 75.5,83.5 Z"/></g>
<g><path style="opacity:0.918" fill="#b0ab77" d="M 77.5,70.5 C 78.1653,72.6979 78.8319,75.0312 79.5,77.5C 80.3601,79.9307 82.0268,81.264 84.5,81.5C 85.0906,84.9399 86.0906,88.2732 87.5,91.5C 85.7943,94.148 84.1276,94.148 82.5,91.5C 84.8575,89.6785 85.1908,87.3452 83.5,84.5C 80.9135,83.52 78.2469,83.1866 75.5,83.5C 74.8333,83.5 74.1667,83.5 73.5,83.5C 73.5,83.1667 73.5,82.8333 73.5,82.5C 75.3725,81.1037 75.7058,79.437 74.5,77.5C 75.5,77.5 76.5,77.5 77.5,77.5C 77.5,75.1667 77.5,72.8333 77.5,70.5 Z"/></g>
<g><path style="opacity:1" fill="#baaf3c" d="M 42.5,83.5 C 44.4668,85.4934 46.4668,87.4934 48.5,89.5C 47.3493,90.731 46.1827,90.731 45,89.5C 43.4421,95.8472 42.2755,95.5139 41.5,88.5C 39.5168,88.1568 38.1834,88.8235 37.5,90.5C 36.5041,90.4142 35.6708,90.7476 35,91.5C 34.5566,86.0453 37.0566,83.3786 42.5,83.5 Z"/></g>
<g><path style="opacity:1" fill="#948c3f" d="M 42.5,83.5 C 43.5,83.5 44.5,83.5 45.5,83.5C 46.8007,84.9622 48.3007,86.2956 50,87.5C 59.0425,92.4461 66.8759,91.1128 73.5,83.5C 74.1667,83.5 74.8333,83.5 75.5,83.5C 74.645,84.5307 73.9783,85.6974 73.5,87C 75.518,88.6375 75.8514,90.4708 74.5,92.5C 72.0535,91.775 69.5535,91.1083 67,90.5C 65.9701,90.8361 65.4701,91.5028 65.5,92.5C 61.8647,91.7711 57.8647,91.4378 53.5,91.5C 51.0807,91.1949 48.414,91.1949 45.5,91.5C 45.9227,93.7812 45.256,95.4479 43.5,96.5C 42.5084,96.6716 41.8417,96.3382 41.5,95.5C 41.3304,92.796 39.9971,91.1293 37.5,90.5C 38.1834,88.8235 39.5168,88.1568 41.5,88.5C 42.2755,95.5139 43.4421,95.8472 45,89.5C 46.1827,90.731 47.3493,90.731 48.5,89.5C 46.4668,87.4934 44.4668,85.4934 42.5,83.5 Z"/></g>
<g><path style="opacity:0.635" fill="#aca678" d="M 82.5,91.5 C 80.0754,93.4557 77.7421,95.6224 75.5,98C 74.4232,98.4696 73.4232,98.3029 72.5,97.5C 74.5541,100.947 74.8874,104.614 73.5,108.5C 72.5224,108.023 71.6891,107.357 71,106.5C 70.2733,108.953 69.2733,111.286 68,113.5C 67.586,113.043 67.086,112.709 66.5,112.5C 65.7568,113.908 64.9234,115.241 64,116.5C 63.6174,115.944 63.1174,115.611 62.5,115.5C 63.968,114.221 64.6347,112.554 64.5,110.5C 66.143,110.52 67.4763,109.853 68.5,108.5C 69.3078,106.577 69.8078,104.577 70,102.5C 70.9338,105.592 72.1004,105.925 73.5,103.5C 71.1571,99.5066 68.4904,95.8399 65.5,92.5C 65.4701,91.5028 65.9701,90.8361 67,90.5C 69.5535,91.1083 72.0535,91.775 74.5,92.5C 74.4701,93.4972 74.9701,94.1639 76,94.5C 78.4939,92.8331 79.9939,90.4998 80.5,87.5C 81.3624,88.7658 82.0291,90.0992 82.5,91.5 Z M 72.5,97.5 C 71.0384,96.5423 69.7051,95.3756 68.5,94C 69.825,94.1484 70.9916,93.9817 72,93.5C 72.49,94.7932 72.6567,96.1266 72.5,97.5 Z"/></g>
<g><path style="opacity:0.463" fill="#a7a277" d="M 53.5,91.5 C 52.7281,92.6935 51.7281,93.6935 50.5,94.5C 50.5674,95.9587 50.2341,97.2921 49.5,98.5C 48.5,98.5 47.5,98.5 46.5,98.5C 45.5,97.8333 44.5,97.1667 43.5,96.5C 45.256,95.4479 45.9227,93.7812 45.5,91.5C 48.414,91.1949 51.0807,91.1949 53.5,91.5 Z M 49.5,94.5 C 48.5343,97.1247 47.5343,97.1247 46.5,94.5C 47.4246,93.4376 48.4246,93.4376 49.5,94.5 Z"/></g>
<g><path style="opacity:1" fill="#9f9438" d="M 53.5,91.5 C 57.8647,91.4378 61.8647,91.7711 65.5,92.5C 68.4904,95.8399 71.1571,99.5066 73.5,103.5C 72.1004,105.925 70.9338,105.592 70,102.5C 69.8078,104.577 69.3078,106.577 68.5,108.5C 67.4763,109.853 66.143,110.52 64.5,110.5C 64.6347,112.554 63.968,114.221 62.5,115.5C 62.1667,116.833 61.8333,118.167 61.5,119.5C 60.1667,119.5 58.8333,119.5 57.5,119.5C 57.4431,118.391 57.1098,117.391 56.5,116.5C 57.7348,116.721 58.7348,117.388 59.5,118.5C 61.7435,115.106 63.2435,111.439 64,107.5C 64.6667,108.167 65.3333,108.833 66,109.5C 68.6533,105.312 67.82,101.979 63.5,99.5C 62.7267,101.813 62.0601,104.146 61.5,106.5C 60.21,107.408 58.8767,107.241 57.5,106C 56.2309,103.861 56.2309,101.695 57.5,99.5C 58.1667,100.167 58.8333,100.833 59.5,101.5C 61.306,99.303 61.6393,96.9697 60.5,94.5C 59.7189,95.7287 59.2189,97.062 59,98.5C 58.6667,96.8333 58.3333,95.1667 58,93.5C 57.6667,93.8333 57.3333,94.1667 57,94.5C 56.1739,92.5946 55.0072,92.2612 53.5,93.5C 54.3833,95.4798 54.2166,97.4798 53,99.5C 52.586,99.0426 52.086,98.7093 51.5,98.5C 50.2319,100.304 49.5652,102.304 49.5,104.5C 48.4271,102.653 48.4271,100.653 49.5,98.5C 50.2341,97.2921 50.5674,95.9587 50.5,94.5C 51.7281,93.6935 52.7281,92.6935 53.5,91.5 Z"/></g>
<g><path style="opacity:1" fill="#b4a834" d="M 56.5,116.5 C 56.5,116.167 56.5,115.833 56.5,115.5C 54.3999,113.105 53.8999,110.439 55,107.5C 52.9288,110.416 51.5954,110.082 51,106.5C 50.6667,106.833 50.3333,107.167 50,107.5C 49.5172,106.552 49.3505,105.552 49.5,104.5C 49.5652,102.304 50.2319,100.304 51.5,98.5C 52.086,98.7093 52.586,99.0426 53,99.5C 54.2166,97.4798 54.3833,95.4798 53.5,93.5C 55.0072,92.2612 56.1739,92.5946 57,94.5C 57.3333,94.1667 57.6667,93.8333 58,93.5C 58.3333,95.1667 58.6667,96.8333 59,98.5C 59.2189,97.062 59.7189,95.7287 60.5,94.5C 61.6393,96.9697 61.306,99.303 59.5,101.5C 58.8333,100.833 58.1667,100.167 57.5,99.5C 56.2309,101.695 56.2309,103.861 57.5,106C 58.8767,107.241 60.21,107.408 61.5,106.5C 62.0601,104.146 62.7267,101.813 63.5,99.5C 67.82,101.979 68.6533,105.312 66,109.5C 65.3333,108.833 64.6667,108.167 64,107.5C 63.2435,111.439 61.7435,115.106 59.5,118.5C 58.7348,117.388 57.7348,116.721 56.5,116.5 Z"/></g>
<g><path style="opacity:0.592" fill="#aaa366" d="M 46.5,98.5 C 47.5,98.5 48.5,98.5 49.5,98.5C 48.4271,100.653 48.4271,102.653 49.5,104.5C 49.3505,105.552 49.5172,106.552 50,107.5C 50.3333,107.167 50.6667,106.833 51,106.5C 51.5954,110.082 52.9288,110.416 55,107.5C 53.8999,110.439 54.3999,113.105 56.5,115.5C 55.5,115.5 54.5,115.5 53.5,115.5C 53.5,114.5 53.5,113.5 53.5,112.5C 50.6245,111.795 48.4579,110.129 47,107.5C 45.7025,108.784 44.5358,108.617 43.5,107C 43.5,105.667 43.5,104.333 43.5,103C 44.3994,101.348 45.3994,99.8484 46.5,98.5 Z"/></g>
</svg>
